<svg xmlns="http://www.w3.org/2000/svg" viewBox="0 0 760 620" fill="none">
  <defs>
    <linearGradient id="bg" x1="50" y1="20" x2="680" y2="590" gradientUnits="userSpaceOnUse"><stop stop-color="#2b3038"/><stop offset="1" stop-color="#111419"/></linearGradient>
    <linearGradient id="metal" x1="250" y1="90" x2="520" y2="550" gradientUnits="userSpaceOnUse"><stop stop-color="#f4f5f7"/><stop offset=".5" stop-color="#959ca5"/><stop offset="1" stop-color="#505761"/></linearGradient>
    <linearGradient id="red" x1="280" y1="90" x2="480" y2="560" gradientUnits="userSpaceOnUse"><stop stop-color="#e62b37"/><stop offset="1" stop-color="#8f101b"/></linearGradient>
    <filter id="shadow"><feDropShadow dx="0" dy="25" stdDeviation="18" flood-color="#000" flood-opacity=".42"/></filter>
  </defs>
  <rect x="20" y="20" width="720" height="580" rx="38" fill="url(#bg)"/>
  <path d="M90 120h580M90 180h580M90 240h580M90 300h580M90 360h580M90 420h580M90 480h580" stroke="#fff" stroke-opacity=".035"/>
  <path d="M150 70v480M240 70v480M330 70v480M420 70v480M510 70v480M600 70v480" stroke="#fff" stroke-opacity=".035"/>
  <g filter="url(#shadow)">
    <path d="M233 116h294v70H233z" fill="url(#metal)"/><path d="M233 434h294v70H233z" fill="url(#metal)"/>
    <path d="M252 170h60v280h-60zM448 170h60v280h-60z" fill="url(#metal)"/>
    <rect x="314" y="154" width="134" height="314" rx="24" fill="#282d34" stroke="#656d77" stroke-width="12"/>
    <g stroke="url(#red)" stroke-width="16">
      <path d="M326 188c40 16 76 16 110 0M326 218c40 16 76 16 110 0M326 248c40 16 76 16 110 0M326 278c40 16 76 16 110 0M326 308c40 16 76 16 110 0M326 338c40 16 76 16 110 0M326 368c40 16 76 16 110 0M326 398c40 16 76 16 110 0M326 428c40 16 76 16 110 0"/>
    </g>
    <path d="M215 505h330l-35 40H250l-35-40z" fill="#737b85"/>
  </g>
  <g fill="#fff" font-family="Arial, sans-serif">
    <text x="72" y="92" font-size="15" letter-spacing="3" opacity=".55">DIGITAL ENGINEERING</text>
    <text x="555" y="548" font-size="13" opacity=".5">CALC_TR 2.0</text>
  </g>
</svg>
